<svg width="600" height="300" viewBox="0 0 600 300" fill="none" xmlns="http://www.w3.org/2000/svg">
    <rect x="50" y="20" width="500" height="260" rx="10" fill="#F0F0F0"/>

    <rect x="55" y="130" width="40" height="40" rx="5" fill="#D3D3D3"/>
    <circle cx="75" cy="150" r="15" fill="#A9A9A9"/>
    <path d="M60 250 L70 240 L80 250 Z" fill="#FFD700"/> <rect x="130" y="60" width="40" height="40" rx="5" fill="#FFCCCC" stroke="#FF0000" stroke-width="2"/>
    <text x="142" y="85" font-family="Arial" font-size="16" fill="#333333">8</text>

    <rect x="180" y="60" width="40" height="40" rx="5" fill="#ADD8E6" stroke="#4682B4" stroke-width="2"/>
    <text x="192" y="85" font-family="Arial" font-size="16" fill="#333333">12</text>
    <rect x="230" y="60" width="40" height="40" rx="5" fill="#ADD8E6" stroke="#4682B4" stroke-width="2"/>
    <text x="242" y="85" font-family="Arial" font-size="16" fill="#333333">16</text>
    <rect x="280" y="60" width="40" height="40" rx="5" fill="#ADD8E6" stroke="#4682B4" stroke-width="2"/>
    <text x="292" y="85" font-family="Arial" font-size="16" fill="#333333">20</text>

    <rect x="350" y="60" width="40" height="40" rx="5" fill="#ADD8E6" stroke="#4682B4" stroke-width="2"/>
    <text x="362" y="85" font-family="Arial" font-size="16" fill="#333333">24</text>
    <rect x="400" y="60" width="40" height="40" rx="5" fill="#ADD8E6" stroke="#4682B4" stroke-width="2"/>
    <text x="412" y="85" font-family="Arial" font-size="16" fill="#333333">28</text>
    <rect x="450" y="60" width="40" height="40" rx="5" fill="#ADD8E6" stroke="#4682B4" stroke-width="2"/>
    <text x="462" y="85" font-family="Arial" font-size="16" fill="#333333">32</text>
    <rect x="500" y="60" width="40" height="40" rx="5" fill="#ADD8E6" stroke="#4682B4" stroke-width="2"/>
    <text x="512" y="85" font-family="Arial" font-size="16" fill="#333333">36</text>

    <rect x="80" y="110" width="40" height="40" rx="5" fill="#ADD8E6" stroke="#4682B4" stroke-width="2"/>
    <text x="92" y="135" font-family="Arial" font-size="16" fill="#333333">3</text>
    <rect x="130" y="110" width="40" height="40" rx="5" fill="#ADD8E6" stroke="#4682B4" stroke-width="2"/>
    <text x="142" y="135" font-family="Arial" font-size="16" fill="#333333">7</text>
    <rect x="180" y="110" width="40" height="40" rx="5" fill="#ADD8E6" stroke="#4682B4" stroke-width="2"/>
    <text x="192" y="135" font-family="Arial" font-size="16" fill="#333333">11</text>
    <rect x="230" y="110" width="40" height="40" rx="5" fill="#ADD8E6" stroke="#4682B4" stroke-width="2"/>
    <text x="242" y="135" font-family="Arial" font-size="16" fill="#333333">15</text>
    <rect x="280" y="110" width="40" height="40" rx="5" fill="#ADD8E6" stroke="#4682B4" stroke-width="2"/>
    <text x="292" y="135" font-family="Arial" font-size="16" fill="#333333">19</text>

    <rect x="350" y="110" width="40" height="40" rx="5" fill="#ADD8E6" stroke="#4682B4" stroke-width="2"/>
    <text x="362" y="135" font-family="Arial" font-size="16" fill="#333333">23</text>
    <rect x="400" y="110" width="40" height="40" rx="5" fill="#ADD8E6" stroke="#4682B4" stroke-width="2"/>
    <text x="412" y="135" font-family="Arial" font-size="16" fill="#333333">27</text>
    <rect x="450" y="110" width="40" height="40" rx="5" fill="#ADD8E6" stroke="#4682B4" stroke-width="2"/>
    <text x="462" y="135" font-family="Arial" font-size="16" fill="#333333">31</text>
    <rect x="500" y="110" width="40" height="40" rx="5" fill="#ADD8E6" stroke="#4682B4" stroke-width="2"/>
    <text x="512" y="135" font-family="Arial" font-size="16" fill="#333333">35</text>

    <rect x="80" y="180" width="40" height="40" rx="5" fill="#ADD8E6" stroke="#4682B4" stroke-width="2"/>
    <text x="92" y="205" font-family="Arial" font-size="16" fill="#333333">2</text>
    <rect x="130" y="180" width="40" height="40" rx="5" fill="#ADD8E6" stroke="#4682B4" stroke-width="2"/>
    <text x="142" y="205" font-family="Arial" font-size="16" fill="#333333">6</text>
    <rect x="180" y="180" width="40" height="40" rx="5" fill="#ADD8E6" stroke="#4682B4" stroke-width="2"/>
    <text x="192" y="205" font-family="Arial" font-size="16" fill="#333333">10</text>
    <rect x="230" y="180" width="40" height="40" rx="5" fill="#ADD8E6" stroke="#4682B4" stroke-width="2"/>
    <text x="242" y="205" font-family="Arial" font-size="16" fill="#333333">14</text>
    <rect x="280" y="180" width="40" height="40" rx="5" fill="#ADD8E6" stroke="#4682B4" stroke-width="2"/>
    <text x="292" y="205" font-family="Arial" font-size="16" fill="#333333">18</text>

    <rect x="350" y="180" width="40" height="40" rx="5" fill="#ADD8E6" stroke="#4682B4" stroke-width="2"/>
    <text x="362" y="205" font-family="Arial" font-size="16" fill="#333333">22</text>
    <rect x="400" y="180" width="40" height="40" rx="5" fill="#ADD8E6" stroke="#4682B4" stroke-width="2"/>
    <text x="412" y="205" font-family="Arial" font-size="16" fill="#333333">26</text>
    <rect x="450" y="180" width="40" height="40" rx="5" fill="#ADD8E6" stroke="#4682B4" stroke-width="2"/>
    <text x="462" y="205" font-family="Arial" font-size="16" fill="#333333">30</text>
    <rect x="500" y="180" width="40" height="40" rx="5" fill="#ADD8E6" stroke="#4682B4" stroke-width="2"/>
    <text x="512" y="205" font-family="Arial" font-size="16" fill="#333333">34</text>

    <rect x="80" y="230" width="40" height="40" rx="5" fill="#ADD8E6" stroke="#4682B4" stroke-width="2"/>
    <text x="92" y="255" font-family="Arial" font-size="16" fill="#333333">1</text>
    <rect x="130" y="230" width="40" height="40" rx="5" fill="#ADD8E6" stroke="#4682B4" stroke-width="2"/>
    <text x="142" y="255" font-family="Arial" font-size="16" fill="#333333">5</text>
    <rect x="180" y="230" width="40" height="40" rx="5" fill="#ADD8E6" stroke="#4682B4" stroke-width="2"/>
    <text x="192" y="255" font-family="Arial" font-size="16" fill="#333333">9</text>
    <rect x="230" y="230" width="40" height="40" rx="5" fill="#ADD8E6" stroke="#4682B4" stroke-width="2"/>
    <text x="242" y="255" font-family="Arial" font-size="16" fill="#333333">13</text>
    <rect x="280" y="230" width="40" height="40" rx="5" fill="#ADD8E6" stroke="#4682B4" stroke-width="2"/>
    <text x="292" y="255" font-family="Arial" font-size="16" fill="#333333">17</text>

    <rect x="350" y="230" width="40" height="40" rx="5" fill="#ADD8E6" stroke="#4682B4" stroke-width="2"/>
    <text x="362" y="255" font-family="Arial" font-size="16" fill="#333333">21</text>
    <rect x="400" y="230" width="40" height="40" rx="5" fill="#ADD8E6" stroke="#4682B4" stroke-width="2"/>
    <text x="412" y="255" font-family="Arial" font-size="16" fill="#333333">25</text>
    <rect x="450" y="230" width="40" height="40" rx="5" fill="#ADD8E6" stroke="#4682B4" stroke-width="2"/>
    <text x="462" y="255" font-family="Arial" font-size="16" fill="#333333">29</text>
    <rect x="500" y="230" width="40" height="40" rx="5" fill="#ADD8E6" stroke="#4682B4" stroke-width="2"/>
    <text x="512" y="255" font-family="Arial" font-size="16" fill="#333333">33</text>
</svg>